# Blender 4.4.3
# www.blender.org
o Cube
v -0.179596 -0.170697 0.162886
v -0.184432 0.184432 0.184432
v -0.158860 -0.179131 -0.130895
v -0.130874 0.234384 -0.169271
v 0.169218 -0.180456 0.177767
v 0.140965 0.285477 0.126730
v 0.158085 -0.165062 -0.144812
v 0.184432 0.184432 -0.184432
vn -0.9933 0.0275 -0.1122
vn -0.0513 -0.0979 -0.9939
vn 0.9987 0.0079 0.0499
vn 0.0582 0.0382 0.9976
vn 0.0065 -0.9999 -0.0112
vn -0.0893 0.9920 -0.0893
vt 0.375000 0.000000
vt 0.625000 0.000000
vt 0.625000 0.250000
vt 0.375000 0.250000
vt 0.625000 0.500000
vt 0.375000 0.500000
vt 0.625000 0.750000
vt 0.375000 0.750000
vt 0.625000 1.000000
vt 0.375000 1.000000
vt 0.125000 0.500000
vt 0.125000 0.750000
vt 0.875000 0.500000
vt 0.875000 0.750000
s 0
f 1/1/1 2/2/1 4/3/1 3/4/1
f 3/4/2 4/3/2 8/5/2 7/6/2
f 7/6/3 8/5/3 6/7/3 5/8/3
f 5/8/4 6/7/4 2/9/4 1/10/4
f 3/11/5 7/6/5 5/8/5 1/12/5
f 8/5/6 4/13/6 2/14/6 6/7/6
